PathFileType	4	(X/Y/Z)	C:\Users\WrightLab\Desktop\Jo\P2_Trial37.trc
DataRate	CameraRate	NumFrames	NumMarkers	Units	OrigDataRate	OrigDataStartFrame	OrigNumFrames
100.00	100.00	       45	19	mm	100.00	1	       563
Frame#	Time	Headset_Front			Headset_Back			Headset_Left			Headset_Right			Left_Shoulder			Right_Shoulder			Sternum			C7			Left Elbow			Right Elbow			Left Wrist			Right Wrist			Left ASIS			Right ASIS			S2			Left Knee			Right Knee			Left Ankle			Right Ankle			
		X1	Y1	Z1	X2	Y2	Z2	X3	Y3	Z3	X4	Y4	Z4	X5	Y5	Z5	X6	Y6	Z6	X7	Y7	Z7	X8	Y8	Z8	X9	Y9	Z9	X10	Y10	Z10	X11	Y11	Z11	X12	Y12	Z12	X13	Y13	Z13	X14	Y14	Z14	X15	Y15	Z15	X16	Y16	Z16	X17	Y17	Z17	X18	Y18	Z18	X19	Y19	Z19	

1	0.000																									-53.40506	1089.54553	-1511.88208							-533.67920	847.19885	-1345.60388				-379.14081	994.95117	-1359.57336				-117.12057	416.99774	-1471.89807										
2	0.010																									-53.71955	1089.39563	-1513.65588							-539.26392	842.37781	-1349.54382				-379.34930	994.66925	-1360.69006				-117.73730	416.68628	-1472.16235										
3	0.020																									-53.87815	1089.11108	-1514.83459							-544.86841	839.10608	-1355.75037				-379.61667	994.32892	-1362.12659				-118.93958	416.66721	-1471.92065										
4	0.030																									-54.85732	1089.79517	-1512.81531							-550.04248	835.18640	-1362.01733				-379.83292	994.03473	-1363.28467				-119.78435	415.82813	-1471.79700										
5	0.040																									-57.04369	1089.95081	-1509.76929							-556.31964	831.82104	-1367.44238				-380.54114	993.61359	-1362.47986				-120.35484	415.96014	-1471.94800										
6	0.050																									-58.96661	1088.30664	-1513.32251							-561.79132	829.49133	-1374.88257				-380.70764	993.36853	-1363.36743				-121.18913	415.45999	-1471.62341										
7	0.060																									-59.54651	1087.29944	-1517.63867							-567.43091	827.49237	-1380.96289				-381.24292	994.21399	-1363.35999				-121.75548	415.22180	-1472.25037										
8	0.070																									-60.79026	1086.56628	-1513.49512							-573.55713	825.79950	-1386.68445				-381.41046	994.00726	-1364.26013				-122.14807	414.66049	-1473.38770										
9	0.080																									-62.80080	1087.84375	-1511.57275							-579.67017	821.39789	-1403.29846				-381.65933	993.67822	-1365.59326				-122.63760	414.12833	-1473.02454										
10	0.090																									-63.85135	1087.46521	-1510.69739							-584.68671	823.97186	-1400.04663				-381.89120	993.40326	-1366.84131				-123.31763	413.53754	-1473.26465										
11	0.100																									-66.44394	1087.22278	-1504.47717							-590.65588	822.86133	-1404.71912				-383.65900	994.10077	-1362.35925				-124.84415	412.68149	-1473.04968										
12	0.110																									-67.32211	1084.38086	-1508.51062							-595.57147	822.90723	-1411.39954				-384.01779	994.46417	-1363.45374				-125.87744	412.51361	-1473.21436										
13	0.120																									-69.68580	1083.04492	-1510.97949							-600.76813	823.77350	-1418.81995				-385.58856	995.56836	-1360.46436				-126.79870	412.15201	-1472.82373										
14	0.130																									-71.98290	1083.49805	-1509.30664							-605.89972	824.57617	-1425.87390				-386.57947	994.68585	-1361.15369				-128.13605	411.38593	-1472.59460										
15	0.140																									-73.82625	1082.26343	-1505.56201							-610.14838	824.71643	-1431.95288				-387.20255	993.80164	-1364.46277				-129.11859	410.73273	-1473.07410										
16	0.150																									-73.57294	1081.38733	-1505.54407							-616.66595	822.25208	-1444.97974				-388.11646	992.99512	-1364.73218				-129.29643	410.72348	-1473.38489										
17	0.160																									-75.60041	1081.47144	-1501.68823							-620.12927	823.24799	-1457.01721				-389.22974	992.92053	-1364.12122				-128.91638	411.05145	-1474.26794										
18	0.170																									-76.68539	1080.53625	-1499.97607							-624.03259	826.51379	-1450.89587				-390.54089	991.89252	-1362.82556				-129.73732	411.27365	-1475.53528										
19	0.180																									-77.63384	1080.49316	-1497.65527							-627.54474	827.48419	-1458.64282				-392.11176	993.40277	-1359.25000				-130.10716	411.31924	-1475.85254										
20	0.190																									-78.41032	1078.36072	-1498.44958							-632.22913	828.67462	-1466.19629				-392.78522	993.08588	-1357.98010				-130.60303	411.33380	-1476.49524										
21	0.200																									-79.50790	1077.49426	-1497.02222							-635.54150	828.80377	-1472.74927				-393.06934	992.73242	-1359.48999				-131.32388	410.92102	-1476.52429										
22	0.210																									-79.66854	1077.09558	-1498.03955							-640.00604	828.40887	-1477.24438				-394.92871	992.77777	-1357.63586				-131.85286	410.73392	-1477.44421										
23	0.220																									-81.67915	1076.25061	-1496.07397							-643.19476	830.15295	-1485.69849				-397.34348	992.43591	-1359.28638				-132.42737	410.42172	-1478.43323										
24	0.230																									-82.95093	1075.79834	-1494.45605							-646.51556	830.63123	-1491.91602				-398.96863	991.98108	-1360.84644				-133.67854	410.09839	-1478.02881										
25	0.240																									-84.19722	1075.33801	-1494.58447							-650.03540	830.28644	-1496.15259				-399.72839	992.42206	-1361.32800				-135.31740	409.95447	-1478.62695										
26	0.250																									-86.38604	1074.10376	-1491.35999							-653.29681	830.44452	-1500.66492				-400.75345	990.97479	-1361.33240				-135.61221	409.66095	-1479.61584										
27	0.260																									-86.51608	1073.25195	-1492.04028							-656.43091	831.13879	-1505.96265				-402.65710	991.27032	-1357.58850				-136.26971	408.74106	-1480.16809										
28	0.270																									-89.26032	1072.71118	-1488.04993							-659.44135	831.49084	-1509.63599				-405.32559	991.97754	-1355.03113				-136.83437	408.46017	-1481.71008										
29	0.280																									-90.20724	1072.49866	-1487.50952							-661.80371	831.88129	-1513.47083				-406.97870	990.15857	-1359.15894				-136.28255	408.63647	-1483.23206										
30	0.290																									-91.97935	1072.48572	-1485.03650							-664.48047	832.20361	-1516.57422				-409.30997	989.48218	-1356.84277				-136.81419	407.97272	-1485.64380										
31	0.300																									-93.61148	1072.44275	-1484.80310							-666.64685	832.17242	-1518.67188				-411.94562	990.29132	-1354.13647				-137.08934	407.90021	-1485.92786										
32	0.310																									-95.08797	1072.19543	-1483.21448							-668.61798	833.06348	-1521.82568				-412.85419	989.05829	-1358.86499				-138.24289	407.27637	-1486.55334										
33	0.320																									-97.47165	1071.95654	-1481.11279							-670.17871	832.69281	-1522.69592				-417.52032	990.39520	-1353.85596				-139.16905	406.97760	-1488.89075										
34	0.330																									-98.52854	1071.76880	-1481.31458							-671.85559	832.83209	-1524.11755				-418.92340	989.71838	-1357.61365				-140.17343	406.21841	-1489.55042										
35	0.340																									-98.70759	1071.67004	-1481.79785							-673.00739	833.73840	-1526.80554	-288.76178	1005.45953	-1365.24988	-421.98138	991.22467	-1351.13818				-141.01003	405.32516	-1490.52637										
36	0.350																									-100.65331	1071.79919	-1478.28418							-673.92657	833.65924	-1527.96973	-290.43744	1003.57196	-1369.68323	-424.73895	991.12476	-1355.13867				-143.04825	404.67160	-1490.67822										
37	0.360																									-102.12647	1071.63965	-1475.94470							-675.43103	832.57166	-1526.72363	-293.41907	1003.97968	-1368.78943	-428.33078	990.13483	-1356.38879				-144.17415	404.41516	-1492.53760										
38	0.370																									-103.14036	1072.24646	-1474.32312							-676.30688	832.72144	-1527.68469	-296.64401	1003.91858	-1369.27747	-430.43176	991.65234	-1350.96387				-144.69809	404.53601	-1494.16504										
39	0.380																									-104.33028	1071.94153	-1471.26489							-676.67584	832.51331	-1528.07007	-300.14703	1004.58411	-1364.73169	-434.65579	990.50525	-1354.19385				-146.09624	403.89661	-1494.89124										
40	0.390																									-105.22059	1071.71228	-1469.29797							-676.87225	832.30743	-1528.25952	-302.85773	1002.35687	-1366.11670	-437.85876	990.00586	-1355.25720				-146.47797	403.70007	-1495.95154										
41	0.400																									-106.12147	1071.65979	-1467.56750							-676.81525	831.53876	-1527.67700	-307.58591	1002.58960	-1359.73645	-441.48138	992.20282	-1347.99939				-148.45734	403.97391	-1495.89282										
42	0.410																									-107.12368	1071.28113	-1465.50989							-676.95673	830.45215	-1526.40662	-309.85895	1001.54742	-1363.72437	-445.08475	989.82538	-1355.53210				-150.19440	402.83566	-1494.41797										
43	0.420																									-108.21942	1071.13440	-1462.37073							-676.98407	829.94946	-1526.04724	-314.79605	1002.20544	-1359.90454	-448.82034	991.74310	-1349.59741				-151.31602	404.61630	-1495.58008										
44	0.430																									-108.93339	1070.95386	-1461.01855							-677.41022	829.13831	-1524.93884	-317.20898	1001.28253	-1361.07935	-452.65439	989.94550	-1353.69800				-152.87338	404.95084	-1494.68701										
45	0.440																									-110.04505	1071.04797	-1458.29297							-677.77271	828.21375	-1523.88147	-321.45245	1000.17096	-1359.31396	-456.52432	990.45941	-1351.46411				-156.02197	404.36798	-1491.60437										
